<?xml version="1.0" encoding="UTF-8" standalone="no"?>
<!-- Created with Inkscape (http://www.inkscape.org/) -->

<svg
   width="282.8157mm"
   height="283.10818mm"
   viewBox="0 0 282.8157 283.10818"
   version="1.1"
   id="svg1"
   xml:space="preserve"
   xmlns="http://www.w3.org/2000/svg"
   xmlns:svg="http://www.w3.org/2000/svg"><defs
     id="defs1" /><g
     id="g18"
     transform="translate(53.035802,-750.85515)"><path
       style="fill:#c8ab37;fill-opacity:1"
       d="m 160.6762,965.91865 c 52.37683,-52.39734 68.2345,-68.89036 68.82602,-71.58351 0.42273,-1.92469 0.3551,-4.20917 -0.1503,-5.07663 -0.5054,-0.86746 -31.39743,-32.36308 -68.64896,-69.99027 -66.94718,-67.6223 -67.78145,-68.41308 -72.17565,-68.41308 -4.38685,0 -5.35133,0.90575 -73.00435,68.55877 -67.69617,67.69617 -68.55877,68.61481 -68.55877,73.0127 0,4.39379 0.90305,5.36048 66.86983,71.58237 36.77841,36.9206 67.87708,67.7553 69.10816,68.5214 1.23108,0.7662 3.91194,1.4109 5.95747,1.4327 3.44277,0.037 8.77646,-5.0197 71.77655,-68.04445 z"
       id="path3-1-8" /><path
       style="fill:#ffffff;stroke-width:0.965237"
       d="m 156.05083,959.9897 c 62.1877,-62.154 62.94643,-62.96428 62.94643,-67.22424 0,-4.25908 -0.77005,-5.08239 -62.84231,-67.18832 -34.56327,-34.58203 -63.93946,-63.15178 -65.28043,-63.48833 -1.34096,-0.33657 -3.61363,-0.16501 -5.05037,0.38125 -1.43674,0.54624 -30.75888,29.25462 -65.16031,63.79639 -52.53595,52.75028 -62.60443,63.34195 -62.9003,66.16882 -0.32998,3.15263 3.66874,7.38704 63.19145,66.91617 62.7353,62.74206 63.59847,63.55056 67.84656,63.55056 4.24714,0 5.11776,-0.8145 67.24928,-62.9123 z m -131.2188,-3.2638 c -40.28175,-40.28176 -61.85509,-62.60436 -61.85509,-64.00337 0,-1.39935 21.57042,-23.7093 61.87327,-63.99457 34.0303,-34.01546 62.57963,-61.84628 63.44297,-61.84628 0.86335,0 29.40966,27.82433 63.43626,61.83184 41.016,40.99301 61.86655,62.56857 61.86655,64.01782 0,1.44924 -20.85055,23.02481 -61.86655,64.01781 -34.0266,34.00752 -62.5811,61.83185 -63.45443,61.83185 -0.87333,0 -29.42267,-27.83479 -63.44298,-61.8551 z"
       id="path2-7-7" /><path
       id="path14-4"
       style="fill:#ffffff;stroke-width:0.736441"
       d="m 133.29441,826.26244 c -3.88736,0.12779 -7.70902,1.80602 -10.48877,4.60179 -2.80238,2.81851 -4.45284,6.35414 -4.79505,10.29498 l 0.0956,-1.1033 -3.24787,0.004 h -0.002 c -3.28427,0.003 -23.905662,0.0258 -45.82614,0.0491 -19.11832,0.0203 -29.08075,0.0341 -34.36741,0.0863 -2.64333,0.0261 -4.10141,0.0594 -5.0524,0.11731 -0.47549,0.0289 -0.82275,0.0568 -1.22887,0.13642 -0.40613,0.0796 -1.01497,0.30956 -1.37459,0.54519 0.074,-0.0485 0.1156,-0.0858 0.11886,-0.0987 v -5.2e-4 -5.2e-4 -5.1e-4 -5.2e-4 h -5.2e-4 v -5.2e-4 h -5.2e-4 v -5.2e-4 h -5.1e-4 l -5.2e-4,-5.1e-4 h -5.2e-4 -5.2e-4 c -0.0279,-0.005 -0.22878,0.10281 -0.6568,0.42478 -0.67637,0.50878 -1.19139,1.46216 -1.36529,2.1053 -0.3478,1.28626 -0.3587,2.45973 -0.42375,5.25962 -0.13009,5.5998 -0.10955,17.16789 -0.10955,41.96902 0,5.34796 10e-4,56.29734 0.005,60.60353 h 10.1353 v 0.016 h 12.49795 v -9.73532 H 34.79791 v -51.49556 -39.55676 h 83.10345 l 0.047,40.30245 0.0491,43.27384 c 10e-4,0.84509 0.36198,1.64974 0.99218,2.21279 l 0.63666,0.56844 c 1.46215,1.30641 3.60577,1.68307 5.32784,0.95859 1.72206,-0.72447 2.97765,-2.59334 2.98638,-4.57594 0.02,-4.29881 2.22024,-6.55464 5.97483,-6.55464 2.33748,0 4.15811,1.15269 5.29477,3.55844 0.19466,0.41198 0.14394,0.24268 0.1819,0.51779 0.038,0.2751 0.0754,1.02126 0.10542,2.42363 0.0563,2.62455 0.0808,2.5215 -0.20516,3.46284 -0.68787,2.26466 -2.83678,4.23758 -4.97902,4.73304 -0.0531,0.002 -0.36704,0.0403 -0.64596,0.0496 -0.43943,0.0147 -1.08701,0.0297 -1.93373,0.0429 -1.69344,0.0264 -4.18673,0.0475 -7.52357,0.0646 -5.13569,0.0264 -12.27467,0.0422 -21.62711,0.0481 v 10.17612 l 32.61558,-0.0403 c 0.32214,-5.3e-4 0.64206,-0.0534 0.94723,-0.15658 l 1.36323,-0.46095 c 2.92709,-0.98854 5.17758,-2.35794 7.18767,-4.42195 2.68285,-2.75473 4.34798,-6.16892 4.84157,-9.95495 0.0699,-0.53557 0.0604,-0.77315 0.0765,-1.37098 0.0161,-0.59783 0.0284,-1.39986 0.0408,-2.42982 0.0248,-2.05991 0.0444,-5.02707 0.0568,-8.99584 0.025,-7.93753 0.0258,-19.87383 0.006,-36.46495 -0.0539,-44.82632 0.14226,-47.02193 -0.53124,-49.26935 -1.97983,-6.60628 -7.52218,-11.3163 -14.22445,-11.87524 -0.55516,-0.0463 -1.11226,-0.0595 -1.6676,-0.0413 z m 0.65215,10.22522 c 0.16189,0.003 0.32263,0.0122 0.48215,0.0289 1.92175,0.20189 3.69736,1.39479 4.66379,3.44166 l 0.33797,0.71675 0.0506,40.71069 0.045,36.21123 c -3.71391,-1.43969 -7.79566,-1.36882 -11.49387,0.10542 -0.0106,-2.08506 -0.0191,-4.44393 -0.0253,-7.58817 -0.015,-7.56236 -0.0174,-17.66107 -0.01,-27.79469 0.008,-10.13363 0.026,-20.3042 0.0527,-28.00604 0.0134,-3.85093 0.0276,-7.08553 0.045,-9.38651 0.009,-1.15049 0.018,-2.06775 0.0274,-2.70526 0.005,-0.31876 0.0111,-0.56942 0.0155,-0.73225 0.001,-0.0391 0.006,-0.0929 0.0114,-0.14366 0.40521,-2.20042 2.19311,-4.13402 4.30878,-4.67879 0.50662,-0.13046 1.00312,-0.18721 1.48879,-0.17931 z" /><path
       id="path17"
       style="fill:#ffffff;stroke-width:0.457982"
       d="m 74.42495,871.80091 c -3.05316,-9.1e-4 -6.10877,0.2893 -8.29925,0.87142 -5.95188,1.58177 -14.30074,6.60683 -16.79353,10.10764 l -0.8068,1.13317 -4.17436,6.17066 -0.73605,1.44628 c -0.40491,0.79542 -0.95661,2.18391 -1.22594,3.08545 l -0.48966,1.63893 -1.22784,6.17999 0.0719,4.1424 c 0.0897,5.17184 1.05101,9.08429 3.40944,13.87537 2.89869,5.88859 7.65166,11.062 13.00612,14.15709 1.78259,1.03036 1.83182,1.10868 1.83182,2.90392 0,1.66774 -0.10621,1.88899 -1.1069,2.30346 -0.60884,0.25221 -1.30297,0.88886 -1.54261,1.4148 -0.58084,1.27479 -0.58713,13.6642 -0.008,14.93616 0.4529,0.994 1.8142,1.79611 3.04829,1.79611 0.56689,0 1.42045,1.34188 3.63783,5.71955 2.14323,4.23129 3.15462,5.83684 3.88729,6.17066 0.63141,0.28766 3.35351,0.45134 7.51043,0.45134 4.15693,0 6.87903,-0.16368 7.51044,-0.45134 0.73267,-0.33382 1.74429,-1.93937 3.88752,-6.17066 2.21738,-4.37767 3.07071,-5.71955 3.6376,-5.71955 1.234076,0 2.595631,-0.80211 3.048531,-1.79611 0.57955,-1.27196 0.57326,-13.66137 -0.008,-14.93616 -0.23964,-0.52594 -0.933775,-1.16259 -1.542625,-1.4148 -1.004026,-0.41589 -1.107126,-0.63288 -1.107126,-2.33236 0,-1.79029 0.0672,-1.90795 1.506856,-2.64242 2.580371,-1.31642 7.097131,-5.22112 9.459894,-8.17808 4.57791,-5.72921 7.15514,-12.83947 7.28087,-20.08698 l 0.0717,-4.1424 -1.15708,-6.20023 -1.19612,-3.07504 -1.19612,-3.07503 -4.30429,-6.17066 -0.807043,-1.13317 c -2.52991,-3.55293 -10.709497,-8.47323 -16.793517,-10.10172 -2.18067,-0.5837 -5.23142,-0.87624 -8.28459,-0.87733 z m -0.49463,5.9695 c 4.30662,-0.0735 8.61305,0.90418 12.81655,2.93492 3.12172,1.50813 4.158816,2.27454 7.147147,5.28197 5.29639,5.33027 7.758143,10.7453 8.180683,17.99485 0.29111,4.9947 -0.55413,9.10152 -2.851863,13.85765 -1.50813,3.12174 -2.27452,4.15884 -5.28196,7.14717 -2.496431,2.48057 -4.326527,3.91611 -6.302717,4.94447 -3.66676,1.90804 -3.96443,2.38306 -3.96443,6.32568 v 3.19241 h -3.08545 -3.08522 v -7.03377 -7.03378 l 5.68407,-5.69381 5.68408,-5.69349 -2.21238,-2.21242 -2.21238,-2.21237 -5.0143,5.00318 -5.01454,5.0034 -5.01429,-5.0034 -5.01453,-5.00318 -2.21238,2.21237 -2.21238,2.21242 5.68407,5.69349 5.6843,5.69381 v 7.03378 7.03377 h -3.08544 -3.08545 v -3.19241 c 0,-2.20325 -0.178,-3.44654 -0.5744,-4.01247 -0.3159,-0.45102 -1.9211,-1.55594 -3.5673,-2.45542 -2.06296,-1.12714 -4.02583,-2.6666 -6.31645,-4.95421 -2.79787,-2.79424 -3.60274,-3.89862 -5.08932,-6.98312 -4.06284,-8.42998 -3.91324,-17.23628 0.43571,-25.64684 1.91922,-3.71167 7.35071,-9.1431 11.06236,-11.06237 4.20478,-2.1742 8.51158,-3.2988 12.81821,-3.37228 z m 1.00323,6.38318 c -1.94355,-0.0263 -3.6414,0.0591 -3.77273,0.18958 -0.13134,0.13047 -0.0375,1.45471 0.20827,2.94297 l 0.44683,2.70607 3.13278,0.18484 c 1.90906,0.11261 4.00437,0.51974 5.36386,1.04252 4.09121,1.57321 8.19789,6.29279 8.99554,10.33793 0.28398,1.44017 0.0785,1.39547 3.627411,0.78691 l 2.719796,-0.46623 -0.25016,-1.1727 c -0.82174,-3.85298 -3.126916,-7.76802 -6.382707,-10.83966 -4.07957,-3.84883 -8.48838,-5.63643 -14.08889,-5.71223 z m -12.85725,61.4666 h 12.34131 12.34156 v 3.08547 3.08519 H 74.41761 62.0763 v -3.08519 z m 5.00506,12.34155 h 7.33625 7.33649 l -1.55136,3.08524 -1.55136,3.08542 h -4.23377 -4.23376 l -1.55113,-3.08542 z" /></g></svg>
